<svg width="32" height="33" viewBox="0 0 32 33" fill="none" xmlns="http://www.w3.org/2000/svg">
<g clip-path="url(#clip0_1_366)">
<path d="M16 14.1167C18.0587 14.1167 19.7333 12.4415 19.7333 10.3834C19.7333 8.32522 18.0587 6.65002 16 6.65002C13.9413 6.65002 12.2667 8.32522 12.2667 10.3834C12.2667 12.4415 13.9413 14.1167 16 14.1167ZM16 7.71669C17.4704 7.71669 18.6667 8.91296 18.6667 10.3834C18.6667 11.8538 17.4704 13.05 16 13.05C14.5296 13.05 13.3333 11.8538 13.3333 10.3834C13.3333 8.91296 14.5296 7.71669 16 7.71669Z" fill="black"/>
<path d="M15.9056 29.4537L24.0874 17.6367C27.1562 13.5455 26.7125 6.82067 23.1376 3.24627C21.2058 1.314 18.6373 0.25 15.9056 0.25C13.1738 0.25 10.6053 1.314 8.67358 3.24573C5.09865 6.82013 4.65491 13.5449 7.71145 17.6201L15.9056 29.4537ZM9.42771 3.99987C11.1584 2.26973 13.4586 1.31667 15.9056 1.31667C18.3525 1.31667 20.6528 2.26973 22.3834 3.99987C25.6101 7.226 26.0074 13.2996 23.2224 17.0127L15.9056 27.5796L8.57705 16.9967C5.80371 13.2996 6.20158 7.226 9.42771 3.99987Z" fill="black"/>
<path d="M22.4624 23.187C22.1691 23.1513 21.9045 23.3614 21.8704 23.6542C21.8363 23.947 22.0453 24.2121 22.3376 24.2462C27.9461 24.9065 30.9333 26.6857 30.9333 27.7166C30.9333 29.1641 25.2523 31.1833 16 31.1833C6.74773 31.1833 1.06667 29.1641 1.06667 27.7166C1.06667 26.6857 4.05387 24.9065 9.6624 24.2462C9.95467 24.2121 10.1637 23.9465 10.1296 23.6542C10.0949 23.3614 9.8304 23.1502 9.5376 23.187C3.92213 23.8484 0 25.7108 0 27.7166C0 29.9694 5.496 32.25 16 32.25C26.504 32.25 32 29.9694 32 27.7166C32 25.7108 28.0779 23.8484 22.4624 23.187Z" fill="black"/>
</g>
<defs>
<clipPath id="clip0_1_366">
<rect width="32" height="32" fill="white" transform="translate(0 0.25)"/>
</clipPath>
</defs>
</svg>
